<?xml version="1.0" standalone="no"?>
<!DOCTYPE svg PUBLIC "-//W3C//DTD SVG 20010904//EN"
 "http://www.w3.org/TR/2001/REC-SVG-20010904/DTD/svg10.dtd">
<svg version="1.0" xmlns="http://www.w3.org/2000/svg"
 width="941.000000pt" height="387.000000pt" viewBox="0 0 941.000000 387.000000"
 preserveAspectRatio="xMidYMid meet">
<metadata>
Created by potrace 1.15, written by Peter Selinger 2001-2017
</metadata>
<g transform="translate(0.000000,387.000000) scale(0.100000,-0.100000)"
fill="#000000" stroke="none">
<path d="M2193 2734 c-19 -25 -21 -26 -49 -11 -16 8 -46 18 -66 22 -35 7 -36
6 -43 -31 -10 -55 -23 -74 -50 -74 -13 0 -25 -4 -27 -9 -1 -4 -25 -18 -52 -30
-53 -23 -57 -40 -5 -22 18 6 47 11 65 11 19 0 34 5 34 11 0 6 10 9 23 7 13 -2
21 -9 20 -18 -3 -17 54 -53 68 -44 6 3 16 1 24 -6 14 -12 65 9 114 48 l24 19
-21 30 -21 30 25 24 25 24 -26 22 c-33 29 -39 29 -62 -3z"/>
<path d="M2313 2738 l-23 -24 43 -46 c23 -26 41 -52 38 -59 -2 -6 0 -9 5 -6 5
3 9 -7 10 -21 0 -15 4 -41 8 -58 7 -28 6 -31 -26 -40 -31 -9 -33 -12 -30 -47
3 -34 1 -37 -22 -37 -21 0 -28 -6 -32 -28 -6 -28 -8 -29 -52 -25 -45 4 -48 3
-63 -29 -9 -18 -18 -31 -21 -28 -3 3 -25 -12 -49 -33 -24 -21 -51 -43 -59 -50
-37 -30 -160 3 -209 56 -13 15 -28 24 -32 21 -5 -3 -6 2 -3 11 5 11 2 14 -9 9
-12 -4 -18 2 -23 20 -4 16 -13 26 -24 26 -12 0 -20 9 -22 22 -2 16 -12 24 -33
28 -25 4 -30 10 -28 31 1 22 -5 27 -58 43 -62 18 -66 25 -48 73 8 23 7 30 -8
42 -16 12 -16 13 -1 8 23 -8 33 10 17 29 -11 13 -10 15 2 12 23 -5 23 15 0 30
-18 13 -22 11 -41 -20 -11 -18 -21 -37 -23 -43 -3 -6 -16 -6 -37 2 -19 7 -35
11 -38 9 -2 -2 -9 -24 -17 -49 l-13 -45 35 -7 36 -6 -6 -50 c-8 -63 -12 -69
-48 -69 -30 0 -30 -1 -27 -47 l3 -48 36 3 c36 2 37 1 53 -47 20 -62 21 -56
-14 -71 -36 -15 -36 -21 -8 -71 24 -44 27 -45 54 -24 28 21 36 19 68 -21 l28
-36 -21 -22 c-31 -33 -29 -36 38 -83 23 -16 24 -16 46 11 l22 28 42 -21 c44
-23 47 -30 30 -63 -7 -13 -7 -24 -1 -30 19 -19 121 -38 212 -39 251 -1 477
157 560 394 24 68 39 270 22 296 -7 9 -19 11 -37 7 -25 -6 -27 -10 -23 -59 l3
-52 -34 -3 c-42 -4 -49 3 -53 58 -2 43 -1 45 27 50 32 6 35 16 21 78 -6 24 -4
32 6 32 8 0 22 6 32 13 17 13 17 15 -3 55 -24 46 -31 49 -66 26 -23 -15 -25
-14 -57 21 l-33 36 -22 -23z"/>
<path d="M4483 2490 c-29 -12 -40 -63 -19 -95 13 -20 25 -25 61 -25 36 0 48 5
61 25 42 64 -25 126 -103 95z"/>
<path d="M5233 2490 c-29 -12 -40 -63 -19 -95 23 -35 97 -36 120 -3 47 66 -20
131 -101 98z"/>
<path d="M8149 2471 c-119 -24 -186 -138 -144 -246 20 -54 57 -87 149 -131 85
-42 116 -69 116 -104 0 -86 -129 -113 -238 -49 -19 10 -38 17 -43 14 -17 -11
-10 -91 9 -107 48 -40 159 -58 241 -38 104 25 162 94 162 195 0 94 -28 128
-167 199 -101 52 -124 79 -105 128 19 52 101 59 185 16 31 -16 40 -17 47 -6
11 16 11 69 1 85 -20 32 -145 58 -213 44z"/>
<path d="M6448 2463 c-10 -2 -20 -14 -23 -26 -3 -12 -4 -157 -3 -322 l3 -300
43 -3 c77 -6 76 -10 70 267 l-6 245 42 -85 c91 -183 201 -385 223 -406 17 -18
33 -23 77 -23 88 0 86 -7 86 340 0 217 -3 299 -12 308 -13 13 -49 15 -85 6
l-23 -6 0 -232 0 -231 -96 185 c-138 267 -138 267 -182 280 -37 10 -83 11
-114 3z"/>
<path d="M3175 2428 c-3 -18 -5 -160 -3 -316 3 -238 5 -284 18 -292 9 -6 91
-9 190 -7 l175 2 0 45 0 45 -125 5 -125 5 -3 92 -3 92 108 3 108 3 0 45 0 45
-107 3 -108 3 0 79 0 80 120 0 c118 0 121 1 131 24 7 14 9 36 5 50 l-6 26
-185 0 -184 0 -6 -32z"/>
<path d="M7121 2446 c-8 -9 -11 -103 -9 -322 l3 -309 55 0 55 0 5 274 5 274
89 -259 c49 -143 93 -267 98 -276 7 -14 21 -18 64 -18 65 0 50 -28 161 284 41
116 80 225 87 241 9 24 12 -23 16 -245 l5 -275 55 0 55 0 3 309 c2 219 -1 313
-9 322 -18 21 -172 19 -190 -2 -8 -9 -51 -114 -96 -233 -73 -194 -82 -213 -92
-191 -6 14 -41 109 -79 213 -37 103 -75 196 -85 207 -14 17 -29 20 -101 20
-58 0 -87 -4 -95 -14z"/>
<path d="M4133 2413 c-8 -3 -13 -25 -13 -58 0 -53 0 -54 -32 -57 -32 -3 -33
-5 -36 -50 -3 -46 -3 -47 30 -50 l33 -3 5 -150 c6 -175 16 -203 80 -229 47
-19 85 -20 129 -5 29 10 31 14 31 59 l0 48 -40 -5 c-65 -9 -70 1 -70 147 l0
128 31 6 c17 3 42 6 56 6 23 0 24 3 21 48 l-3 47 -52 3 -53 3 0 48 c0 26 -5
52 -12 59 -12 12 -81 15 -105 5z"/>
<path d="M3812 2299 c-62 -12 -108 -44 -139 -96 -22 -37 -28 -62 -31 -130 -6
-105 10 -164 57 -213 60 -63 168 -77 257 -34 37 18 39 21 42 72 2 28 0 52 -4
52 -4 0 -31 -12 -61 -26 -48 -24 -58 -26 -91 -16 -54 16 -76 59 -76 147 0 78
20 125 61 144 35 16 54 14 108 -14 27 -13 52 -22 57 -19 11 7 10 71 -2 94 -17
32 -110 53 -178 39z"/>
<path d="M5567 2299 c-78 -19 -117 -65 -117 -139 0 -72 18 -92 135 -150 57
-29 71 -40 73 -62 7 -55 -74 -75 -157 -37 -48 21 -61 16 -61 -26 0 -56 83 -93
181 -82 108 13 159 62 159 153 0 70 -24 98 -126 144 -93 43 -113 70 -74 102
27 22 78 23 127 3 51 -22 54 -20 51 27 -2 34 -8 45 -28 54 -37 17 -119 24
-163 13z"/>
<path d="M6040 2301 c-107 -22 -167 -97 -177 -220 -16 -194 82 -294 273 -278
76 7 124 21 136 40 11 17 10 77 -1 77 -5 0 -41 -7 -80 -16 -43 -10 -85 -14
-108 -9 -48 9 -93 54 -93 94 l0 31 136 0 c74 0 144 5 155 10 36 20 20 145 -26
206 -40 53 -134 81 -215 65z m111 -110 c19 -20 29 -40 29 -60 l0 -31 -95 0
-95 0 0 31 c0 45 47 89 95 89 27 0 44 -8 66 -29z"/>
<path d="M4471 2286 c-8 -9 -11 -82 -9 -242 l3 -229 60 0 60 0 3 229 c2 160
-1 233 -9 242 -6 8 -30 14 -54 14 -24 0 -48 -6 -54 -14z"/>
<path d="M4673 2283 c-7 -19 134 -454 151 -465 6 -4 41 -8 78 -8 59 0 69 3 82
23 25 39 150 433 143 450 -5 12 -18 17 -49 17 -24 0 -48 -4 -54 -8 -7 -4 -36
-85 -65 -180 -30 -98 -56 -167 -60 -160 -4 7 -28 83 -55 168 -26 85 -51 161
-57 168 -15 19 -106 16 -114 -5z"/>
<path d="M5222 2288 c-9 -9 -12 -76 -12 -240 l0 -228 23 -6 c13 -3 41 -4 63
-2 l39 3 3 234 c2 181 -1 236 -10 243 -20 12 -93 9 -106 -4z"/>
<path d="M1468 1658 c-3 -52 -4 -53 -35 -56 -27 -3 -33 -8 -33 -27 0 -19 6
-24 33 -27 l32 -3 5 -131 c4 -114 8 -135 25 -154 25 -28 75 -50 115 -50 27 0
30 3 30 30 0 25 -4 30 -24 30 -13 0 -35 9 -50 21 -25 20 -26 23 -26 140 l0
119 45 0 c41 0 45 2 45 25 0 23 -4 25 -45 25 l-45 0 0 55 0 55 -34 0 -35 0 -3
-52z"/>
<path d="M715 1596 c-142 -64 -153 -283 -19 -362 62 -37 148 -39 217 -5 40 19
47 27 47 52 l0 28 -47 -20 c-26 -11 -65 -22 -87 -25 -69 -9 -135 39 -152 109
l-6 27 146 0 146 0 0 46 c0 61 -34 120 -82 145 -43 22 -119 24 -163 5z m124
-50 c27 -14 51 -53 51 -81 0 -12 -20 -15 -105 -15 -94 0 -105 2 -105 18 0 27
29 63 64 78 40 17 61 17 95 0z"/>
<path d="M1125 1591 c-166 -75 -145 -326 32 -377 60 -18 103 -14 171 16 36 16
42 23 42 48 l0 30 -57 -24 c-67 -27 -100 -30 -148 -10 -88 37 -110 179 -39
249 51 51 132 42 164 -17 10 -20 21 -26 47 -26 31 0 34 2 27 23 -29 93 -139
134 -239 88z"/>
<path d="M2704 1591 c-51 -23 -71 -68 -53 -119 12 -36 48 -61 131 -92 51 -19
88 -49 88 -72 0 -5 -9 -17 -20 -28 -27 -27 -119 -28 -143 -2 -10 10 -17 26
-17 35 0 12 -9 17 -30 17 -27 0 -30 -3 -30 -33 0 -58 55 -91 150 -91 81 0 126
22 146 71 12 27 13 42 4 68 -13 39 -33 54 -115 84 -61 23 -105 55 -105 76 0
24 42 50 80 50 42 0 70 -18 70 -46 0 -14 7 -19 30 -19 25 0 30 4 30 23 0 79
-119 122 -216 78z"/>
<path d="M3072 1589 c-25 -12 -55 -39 -70 -62 -23 -35 -27 -51 -27 -117 0 -67
4 -82 28 -118 45 -69 133 -101 225 -81 63 13 102 42 102 75 0 29 -1 29 -50 4
-59 -30 -118 -35 -160 -13 -38 20 -80 75 -80 104 0 18 11 19 146 19 l146 0 -4
55 c-8 93 -62 146 -155 152 -45 3 -68 -1 -101 -18z m137 -43 c27 -14 51 -53
51 -81 0 -12 -20 -15 -110 -15 -60 0 -110 2 -110 5 0 20 36 69 63 85 38 24 68
25 106 6z"/>
<path d="M1690 1575 c0 -22 4 -25 35 -25 l36 0 -3 -142 -3 -143 -27 0 c-24 1
-28 -3 -28 -27 l0 -28 95 0 95 0 0 28 c0 24 -4 28 -27 27 l-28 0 -3 168 -2
167 -70 0 c-68 0 -70 -1 -70 -25z"/>
<path d="M1890 1576 c0 -19 6 -25 27 -28 24 -3 31 -16 88 -168 l62 -165 42 0
42 0 54 140 c29 77 58 152 64 168 7 19 18 27 36 27 20 0 25 5 25 25 0 25 -1
25 -85 25 -84 0 -85 0 -85 -25 0 -18 5 -25 20 -25 11 0 20 -3 20 -7 0 -14 -85
-253 -90 -253 -6 0 -90 230 -90 248 0 6 9 12 20 12 15 0 20 7 20 25 0 25 -1
25 -85 25 -83 0 -85 0 -85 -24z"/>
<path d="M2390 1576 c0 -21 6 -25 33 -28 l32 -3 3 -134 c3 -143 0 -151 -45
-151 -18 0 -23 -6 -23 -25 l0 -25 100 0 100 0 0 25 c0 20 -5 25 -24 25 -43 0
-47 17 -44 184 l3 156 -67 0 c-65 0 -68 -1 -68 -24z"/>
</g>
</svg>
